<?xml version="1.0" encoding="UTF-8" standalone="no"?>
<!-- Created with Inkscape (http://www.inkscape.org/) -->

<svg
   width="512"
   height="512"
   viewBox="0 0 512 512"
   version="1.1"
   id="svg5"
   xml:space="preserve"
   inkscape:version="1.2.1 (9c6d41e410, 2022-07-14)"
   sodipodi:docname="batchess.svg"
   inkscape:export-filename="batchessbaksmoothwhitenobgtest.png"
   inkscape:export-xdpi="96"
   inkscape:export-ydpi="96"
   xmlns:inkscape="http://www.inkscape.org/namespaces/inkscape"
   xmlns:sodipodi="http://sodipodi.sourceforge.net/DTD/sodipodi-0.dtd"
   xmlns="http://www.w3.org/2000/svg"
   xmlns:svg="http://www.w3.org/2000/svg"><sodipodi:namedview
     id="namedview7"
     pagecolor="#ffffff"
     bordercolor="#666666"
     borderopacity="1.0"
     inkscape:showpageshadow="2"
     inkscape:pageopacity="0.0"
     inkscape:pagecheckerboard="0"
     inkscape:deskcolor="#d1d1d1"
     inkscape:document-units="px"
     showgrid="false"
     showguides="false"
     inkscape:zoom="0.48891402"
     inkscape:cx="217.82971"
     inkscape:cy="220.89774"
     inkscape:window-width="1920"
     inkscape:window-height="1017"
     inkscape:window-x="1912"
     inkscape:window-y="-8"
     inkscape:window-maximized="1"
     inkscape:current-layer="layer1" /><defs
     id="defs2"><inkscape:path-effect
       effect="transform_2pts"
       start="145.91276,262.55419"
       end="365.63666,262.55419"
       id="path-effect3972"
       is_visible="true"
       lpeversion="1"
       first_knot="1"
       last_knot="2"
       helper_size="4"
       stretch="1"
       offset="0"
       elastic="false"
       from_original_width="true"
       flip_vertical="false"
       flip_horizontal="false"
       lock_length="false"
       lock_angle="false" /><inkscape:path-effect
       effect="bend_path"
       id="path-effect3970"
       is_visible="true"
       lpeversion="1"
       bendpath="m 145.91276,262.55419 h 219.7239"
       prop_scale="1"
       scale_y_rel="false"
       vertical="false"
       hide_knot="false" /><inkscape:path-effect
       effect="join_type"
       id="path-effect3968"
       is_visible="true"
       lpeversion="1"
       linecap_type="butt"
       line_width="1.1"
       linejoin_type="extrp_arc"
       miter_limit="100"
       attempt_force_join="true" /><inkscape:path-effect
       effect="mirror_symmetry"
       start_point="365.63666,60.240733"
       end_point="365.63666,464.86764"
       center_point="365.63666,262.55419"
       id="path-effect3966"
       is_visible="false"
       lpeversion="1.2"
       lpesatellites=""
       mode="free"
       discard_orig_path="false"
       fuse_paths="false"
       oposite_fuse="false"
       split_items="false"
       split_open="false"
       link_styles="false" /><inkscape:path-effect
       effect="interpolate_points"
       id="path-effect3964"
       is_visible="false"
       lpeversion="1"
       interpolator_type="CentripetalCatmullRom" /><inkscape:path-effect
       effect="attach_path"
       id="path-effect3962"
       lpeversion="1"
       is_visible="true"
       startposition="2.5"
       endposition="0.8"
       startcurvestart="0,0 , 20.199723,0.10576647"
       startcurveend="0,0 , 20.8,0" /><inkscape:path-effect
       effect="bend_path"
       id="path-effect3960"
       is_visible="false"
       lpeversion="1"
       bendpath="m 145.91276,262.55419 h 219.7239"
       prop_scale="1"
       scale_y_rel="false"
       vertical="false"
       hide_knot="false" /></defs><g
     inkscape:label="Layer 1"
     inkscape:groupmode="layer"
     id="layer1"><g
       id="g4444"
       transform="translate(-440.00004,21.000003)"><g
         id="g4398"><path
           style="fill:#000000;stroke:none;stroke-width:0.247768"
           d="m 693.80152,460.04394 c -0.46952,-0.0287 -2.4366,-0.4081 -6.23814,-0.8421 -12.29325,-1.11858 -26.40772,-8.03362 -34.03943,-15.57309 -14.62769,-14.45088 -16.69119,-22.78026 -29.83046,-45.16625 -4.74458,-10.35066 -8.01438,-29.62018 -10.64247,-41.38609 -1.03789,-2.32015 -1.0921,-4.51733 -1.18581,-4.61099 -0.72489,-4.06875 -0.59044,-3.22234 -2.58449,-10.92297 0,-0.13346 -0.55996,-2.40584 -0.79895,-4.0138 -0.55032,-3.70249 -1.2247,-6.76468 -1.8205,-10.6157 -0.69572,-4.49699 -4.54409,-29.98598 -5.12282,-41.62777 -0.34873,-8.05057 0.0204,-9.21047 1.06945,-35.94844 0.13659,-3.48535 0.41443,-5.40607 0.49242,-6.05793 0.31574,-2.87452 1.99723,-6.3925 2.64775,-8.11619 23.33996,-89.18241 157.25962,-72.91138 178.12003,3.7362 1.82727,14.33521 3.45939,30.43823 3.3097,40.99317 -0.11901,0.12939 -0.21651,1.45317 -0.21651,2.9416 -0.0947,8.86962 0.43618,20.36939 -0.24641,25.11427 -0.1972,1.29395 -0.22832,2.28017 -0.0859,2.72544 -0.7696,6.67597 -0.0258,9.46505 -0.12893,14.68151 -0.032,1.62331 -0.16333,3.31762 -0.29167,3.7651 -0.12834,0.4475 -0.2899,2.37908 -0.35903,4.29241 -1.67356,10.93533 -3.41107,25.59651 -7.05427,42.69136 -0.13091,0.23663 -0.45869,1.3222 -0.72846,2.41238 -0.26976,1.09017 -0.67312,2.59536 -0.89635,3.34485 -0.22324,0.7495 -0.46611,1.75297 -0.53975,2.22991 -0.0737,0.47693 -0.23602,0.99476 -0.36088,1.1507 -0.12488,0.15594 -0.4414,1.32664 -0.70344,2.60154 -0.52006,2.5303 -1.03533,4.47736 -1.23645,4.67204 -14.99944,27.41752 -21.2608,50.10523 -48.34509,64.84517 -2.21077,1.20316 -6.90392,1.8746 -9.26687,2.01765 -4.21248,0.25503 -12.00392,1.33388 -22.91627,0.66601 z m 19.94522,-14.8849 c 28.55834,-22.15929 26.91018,-46.16964 25.32137,-58.83566 -0.1992,-4.4632 -3.71331,-13.78165 -5.38571,-11.6445 -1.6724,2.13715 -2.25054,2.9014 -3.08035,4.43203 -0.8298,1.53062 -1.54682,2.97393 -2.22334,4.08271 -0.67652,1.10878 -1.12762,1.95355 -1.12762,2.12999 0,0.17644 -0.41616,0.68311 -0.99107,1.77272 -0.57491,1.08961 -1.39669,2.58189 -1.98566,3.62547 -0.58897,1.04359 -0.92793,1.83602 -2.59433,3.99444 -1.6664,2.15842 -7.23226,4.92358 -8.79945,5.4802 -1.56718,0.5566 -8.83472,2.06173 -11.49169,2.34044 -2.65698,0.27872 -2.20826,0.3815 -4.30152,0.0349 -2.09327,-0.34658 -4.48573,-0.38299 -6.55143,-0.61187 -2.0657,-0.22888 -4.68311,-0.43484 -5.84224,-0.7494 -1.15913,-0.31456 -0.99635,-0.43618 -1.21109,-0.51549 -0.21474,-0.0793 1.05124,0.64772 -0.78086,-0.2884 -1.8321,-0.93612 -7.27605,-4.32033 -9.55967,-6.41391 -2.28362,-2.09359 -3.96894,-14.09149 -9.14838,-10.66046 -5.17945,3.43104 6.41479,51.00157 17.16483,61.45376 4.81187,3.93642 21.94661,3.78321 32.58821,0.37302 z m -10.90045,-14.3357 c -0.81763,0.0658 2.32967,-0.22737 -1.72198,0.35454 -4.05165,0.58191 -22.24976,-2.98904 -25.12237,-5.00808 v -1.7e-4 -1.6e-4 c -2.34229,-2.78565 -0.74291,-4.48444 0.9934,-5.03573 1.63197,-0.51817 3.95049,-0.68059 5.96912,-0.62567 2.68627,0.0731 3.82009,-0.0243 6.25458,-10e-4 2.43448,0.0232 -0.39476,-0.21606 5.27602,-0.0941 5.67078,0.1219 24.60611,-0.78151 25.92944,-0.8294 1.32332,-0.0479 3.0996,-0.0728 2.37867,0.94076 -0.72093,1.01358 -11.96197,8.84631 -19.95688,10.29916 M 647.8296,369.26554 c -0.011,-1.05348 0.56758,-9.04114 3.00195,-10.72146 8.20257,-8.65512 19.55366,-9.75869 29.12498,-15.27991 10.33823,-5.96361 25.20818,-7.05525 35.77335,-1.50359 27.67589,10.34741 35.00741,12.69901 33.80407,26.47699 -0.16743,0 -0.24466,0.66031 -0.21122,1.80573 18.72864,-7.10095 20.15676,-11.95774 26.01637,-20.92114 3.8302,-11.44869 1.93486,-19.52735 1.48501,-52.92526 0.0372,-1.45401 0.86344,-4.20361 -0.45541,-3.96532 -16.98082,3.068 -21.96071,7.06823 -28.44237,8.07687 -0.56715,0.0882 -1.3215,0.26038 -1.75323,0.35846 -9.9488,2.25998 -22.13335,5.06775 -27.06676,2.00587 -17.29854,-10.73621 -4.55752,-30.60279 -22.8638,-29.26515 -19.36173,1.41476 -10.90136,27.43267 -33.78091,30.40939 -9.18319,1.19476 -18.51343,0.173 -34.68736,-4.3685 -11.24224,-1.11975 -16.14568,-2.93569 -14.99367,5.74118 1.69309,10.37457 1.48342,21.86471 3.04898,31.53639 1.42901,3.9715 2.56959,13.46143 4.09806,18.66871 3.34554,11.39775 15.59882,17.78107 18.86273,18.27896 7.58526,1.15707 9.0602,-2.3488 9.03923,-4.40822 z m 67.66031,-2.09251 c 6.7646,-1.14717 8.39199,-0.82037 9.07696,-1.1843 13.3724,-7.10467 -10.93766,-11.36406 -24.13845,-12.71583 -6.36308,0.46384 -8.13965,-0.27528 -17.07658,2.28561 -52.3949,13.27084 25.37348,12.76167 32.13807,11.61452 z M 699.50017,259.65528 c 0.61322,-0.32665 1.91757,-0.73518 2.89856,-0.90783 0.98097,-0.17265 2.20312,-0.52781 2.71588,-0.78921 4.57637,-1.22527 8.95538,-4.26559 12.97763,-5.04436 0.60798,-0.0937 1.7277,-0.41346 2.59203,-0.61818 4.37564,-1.03643 13.1317,-3.08904 13.1317,-3.08904 l 13.02672,-1.54642 11.39441,-0.19253 c -5.21596,-2.91021 -14.30793,-5.18604 -18.61982,-3.95318 -0.47156,0.27822 -1.29083,0.58241 -1.8227,0.66251 -3.03555,0.45711 -4.79967,0.92664 -9.15807,1.31687 -6.84813,0.61314 -2.4977,-3.07654 4.8079,-7.81741 3.3971,-1.28064 3.5698,-1.53653 6.91832,-1.88003 4.13579,0.50565 7.86294,-0.32368 10.69256,-0.0115 5.14958,1.9828 2.37968,1.14566 6.97627,3.61078 2.55462,1.54574 3.93569,3.42047 5.46034,4.0617 0.0731,-0.0731 0.37588,0.0702 0.67287,0.31843 1.22464,1.09716 1.6675,2.83885 3.39501,2.91866 l 0.2355,-0.13927 0.41479,-0.74165 c 0.39787,-0.71141 -0.14745,-1.61605 -0.25395,-1.78139 -0.10649,-0.16534 -0.20566,-0.95289 -0.22037,-1.75011 -0.0151,-0.79722 -0.12669,-1.52195 -0.249,-1.61049 -0.12217,-0.0884 -0.23234,-0.66273 -0.24472,-1.27595 -0.0395,-1.95902 -0.41061,-3.82277 -0.88224,-4.43128 -0.25188,-0.32499 -0.45797,-0.91426 -0.45797,-1.30951 0,-0.39522 -0.16148,-0.96553 -0.35885,-1.26735 -0.19736,-0.30183 -0.40006,-0.939 -0.45043,-1.41595 -0.11195,-1.05978 -0.66239,-1.98213 -1.18291,-1.98213 -0.5872,0 -0.98101,-0.51722 -0.98101,-1.2884 -32.18375,-52.66318 -70.87077,-16.653 -133.93974,-0.0746 -0.11044,0.27253 -0.3565,0.65295 -0.54681,0.84536 -0.20546,0.20774 -0.30711,0.68287 -0.25027,1.16979 0.0982,0.8417 0.36988,1.45149 -0.53416,1.45149 -0.49697,0 -0.71066,0.75556 -1.07786,0.97984 -1.10717,0.67621 -1.15169,1.68636 -1.94832,2.53434 0,0 -0.43889,0.3286 -0.53626,0.57083 0.29684,2.01982 -1.00637,5.95851 -0.2906,6.81608 1.65147,1.97864 8.48624,-1.86698 9.85812,-2.59883 0.26962,0 0.8477,-0.22093 1.28462,-0.49098 0.43692,-0.27002 1.00758,-0.52635 1.26808,-0.5696 0.26052,-0.0432 0.71283,-0.21017 1.00511,-0.37097 0.29228,-0.16081 1.16475,-0.36681 1.93878,-0.45777 0.77406,-0.0911 1.55733,-0.31535 1.7406,-0.49864 8.95048,-1.16421 18.95611,2.4205 21.90715,4.61875 0.28438,0 0.51706,0.24778 0.51706,0.24778 l 0.42609,0.24777 c 2.48645,2.23844 2.94138,2.20972 0.84957,4.66345 -1.02508,1.20244 -3.59987,-0.54815 -7.1538,-0.62265 -0.53755,-0.0112 -1.34711,-0.003 -1.88893,-0.19426 -1.26697,-0.16751 -2.5195,-0.50121 -3.6426,-0.38163 -9.16196,-0.0112 -6.82149,-4.55235 -15.02986,2.04808 -0.5682,0.4569 -0.68049,0.49336 -0.87961,1.58911 -0.1088,0.59885 0.27884,0.56756 0.97609,0.7237 0.59577,0.13341 1.19965,-0.19118 1.80476,-0.2336 2.81913,-0.19763 8.4776,-0.0955 8.4776,-0.0955 l 19.69023,2.72038 c 0,0 0.5485,0.18834 1.07663,0.18834 0.52815,0 1.75083,0.1663 2.71709,0.36956 3.58086,1.27359 7.23066,1.83832 9.78892,3.34694 0.17236,0.10165 1.14766,0.77123 2.34992,1.01504 6.00472,1.21775 6.80627,2.17772 12.0525,2.61013 2.1944,-0.0196 2.9287,-0.072 4.56145,-0.21361 z"
           id="path1192"
           sodipodi:nodetypes="ccsccccssccccccccccsccssssscsssczzzzzzzzzzzzzzzzzccczssssszzzzcczcccscssssssccccssczccczccsccccssccccccccssssssssssssccssssscssssccccssccssssccscsscccsccs" /></g><g
         id="g937"
         transform="matrix(1.4942041,0,0,1.4129224,1097.743,241.26607)"><g
           style="fill:none;fill-opacity:1;fill-rule:evenodd;stroke:#000000;stroke-width:1.5;stroke-linecap:round;stroke-linejoin:round;stroke-miterlimit:4;stroke-dasharray:none;stroke-opacity:1"
           id="g687"
           transform="matrix(4.8651816,0,0,4.8651816,-378.18131,-189.40464)"><path
             d="M 22.5,11.63 V 6"
             style="fill:none;stroke:#000000;stroke-linejoin:miter"
             id="path673" /><path
             d="m 20,8 h 5"
             style="fill:none;stroke:#000000;stroke-linejoin:miter"
             id="path675" /><path
             d="m 22.5,25 c 0,0 4.5,-7.5 3,-10.5 0,0 -1,-2.5 -3,-2.5 -2,0 -3,2.5 -3,2.5 -1.5,3 3,10.5 3,10.5"
             style="fill:#ffffff;stroke:#000000;stroke-linecap:butt;stroke-linejoin:miter"
             id="path677" /><path
             d="m 32.5,37 v -7 c 0,0 9,-4.5 6,-10.5 -4,-6.5 -13.5,-3.5 -16,4 V 27 23.5 C 19,16 9.5,13 6.5,19.5 c -3,6 5,10 5,10 V 37 c 11.197687,-5.116015 18.180309,-0.55315 21,0"
             style="fill:#ffffff;stroke:#000000"
             id="path679"
             sodipodi:nodetypes="cccccccccc" /><path
             d="M 11.5,30 C 17,27 27,27 32.5,30"
             style="fill:none;stroke:#000000"
             id="path681" /><path
             d="m 11.5,33.5 c 5.5,-3 15.5,-3 21,0"
             style="fill:none;stroke:#000000"
             id="path683" /><path
             d="M 11.5,37 C 17,34 27,34 32.5,37"
             style="fill:none;stroke:#000000"
             id="path685" /></g></g><path
         style="fill:#ffffff;fill-opacity:1;stroke:#000000;stroke-width:14.1421;stroke-linecap:round;stroke-linejoin:round;stroke-dasharray:none;stroke-opacity:1;paint-order:stroke fill markers"
         d="m 634.67174,371.47381 c -4.63877,-2.3116 -10.62155,-8.17627 -12.68113,-12.43079 -2.71133,-5.60086 -6.20436,-24.27253 -7.48338,-40.00169 -0.6422,-7.89773 -1.34473,-14.82099 -1.56117,-15.38503 -0.21644,-0.56403 0.1537,-1.8607 0.82254,-2.88148 1.19396,-1.82221 1.32714,-1.84903 7.32559,-1.47503 3.36024,0.20952 9.4506,1.21112 13.53414,2.2258 10.94827,2.72042 20.06752,3.61977 26.90262,2.65316 10.11118,-1.42991 13.8507,-4.5928 20.05392,-16.96166 2.39639,-4.77828 4.79085,-8.49717 6.35561,-9.87104 4.30354,-3.77856 11.00197,-4.78812 15.11806,-2.27854 2.58401,1.57547 3.30238,3.07226 4.9194,10.25008 1.51969,6.74571 3.14429,10.31326 6.27407,13.77755 3.7735,4.17682 5.68828,4.9617 12.08831,4.95503 6.56398,-0.007 23.08961,-3.27545 30.26393,-5.98593 4.85537,-1.83437 17.34275,-5.32203 19.05523,-5.32203 1.17291,0 2.08349,41.31699 1.06748,48.43681 -0.90583,6.34778 -3.44412,11.33095 -8.68506,17.05052 -3.37198,3.67991 -5.44949,5.18351 -10.67334,7.72476 -3.5675,1.73549 -6.71035,3.15544 -6.9841,3.15544 -0.27375,0 -0.49772,-1.64963 -0.49772,-3.66584 0,-6.68818 -3.15115,-10.89529 -11.28637,-15.06849 -3.573,-1.83287 -25.24022,-10.22496 -29.37227,-11.37638 -4.70135,-1.31007 -14.60381,-1.26479 -19.80736,0.0906 -2.30702,0.6009 -6.2718,2.14665 -8.81062,3.435 -2.53882,1.28835 -7.63892,3.52963 -11.33355,4.98062 -9.42801,3.70266 -14.16653,6.35967 -17.62326,9.88182 -2.71821,2.76965 -3.06175,3.53271 -3.83129,8.50976 -0.60328,3.90183 -1.23462,5.75195 -2.20491,6.46144 -2.15093,1.5728 -6.76208,1.2002 -10.94537,-0.88442 z"
         id="path4339" /><path
         style="fill:#ffffff;fill-opacity:1;stroke:#000000;stroke-width:14.1421;stroke-linecap:round;stroke-linejoin:round;stroke-dasharray:none;stroke-opacity:1;paint-order:stroke fill markers"
         d="m 687.77769,258.08937 c -2.85283,-0.7182 -6.19391,-1.76835 -7.42462,-2.33366 -6.84847,-3.14571 -24.85546,-6.14702 -36.88042,-6.14702 -3.94608,0 -6.723,-0.28792 -6.723,-0.69707 0,-0.38339 1.28309,-1.54618 2.85131,-2.58398 2.76562,-1.8302 2.99405,-1.86267 7.6014,-1.08039 2.61255,0.44358 7.58849,1.16962 11.05764,1.61344 5.81981,0.74453 6.38026,0.70749 7.24784,-0.47901 1.30411,-1.78347 1.22303,-2.06622 -1.16999,-4.07982 -4.66321,-3.92383 -16.29389,-6.62632 -23.48246,-5.45635 -2.14451,0.34903 -6.05789,1.61344 -8.69642,2.8098 -5.87583,2.66423 -8.13885,2.82678 -8.13329,0.58422 0.008,-3.11338 1.48578,-6.85105 3.26166,-8.24796 0.99148,-0.77989 1.61314,-1.72469 1.38147,-2.09954 -0.46481,-0.75207 3.86484,-2.49663 13.03059,-5.25047 14.67631,-4.40946 29.93049,-6.3274 50.55814,-6.35678 23.7973,-0.0339 30.74498,1.1512 58.11078,9.91208 l 14.97727,4.79482 0.72851,2.82843 c 1.53775,5.97032 2.02779,9.56731 1.35966,9.98024 -0.3688,0.22793 -1.04713,-0.0697 -1.50739,-0.66133 -1.26555,-1.62685 -7.35455,-6.06816 -11.01917,-8.03735 -3.00962,-1.61723 -3.83396,-1.72806 -11.03087,-1.48305 -8.57421,0.2919 -11.00915,1.14304 -16.21082,5.66658 -2.03594,1.77052 -2.64616,2.75173 -2.28944,3.68133 0.42134,1.09798 1.02873,1.20276 4.54356,0.78377 2.23146,-0.266 6.06598,-0.93864 8.52115,-1.49476 3.87182,-0.87699 5.10809,-0.8768 9.32016,0.001 2.67091,0.5569 5.75331,1.49882 6.84977,2.09316 1.92005,1.04077 1.76735,1.08165 -4.14248,1.10892 -3.3748,0.0156 -8.62507,0.36548 -11.66726,0.77759 -7.98648,1.08187 -23.36928,4.78027 -26.47702,6.36572 -4.48939,2.29032 -13.36924,4.90892 -16.44436,4.84932 -1.60322,-0.0311 -5.24908,-0.64412 -8.1019,-1.36233 z"
         id="path4341" /><path
         style="fill:#ffffff;fill-opacity:1;stroke:#000000;stroke-width:14.1421;stroke-linecap:round;stroke-linejoin:round;stroke-dasharray:none;stroke-opacity:1;paint-order:stroke fill markers"
         d="m 686.24713,366.94704 c -10.82437,-0.53475 -16.47137,-1.38459 -19.31587,-2.90692 l -1.459,-0.78084 1.57759,-1.27745 c 2.07286,-1.67851 7.58495,-3.70706 16.52757,-6.08246 5.89985,-1.56716 8.72826,-1.92228 15.04408,-1.88887 8.86855,0.0469 19.56361,2.05768 25.56956,4.8073 4.08667,1.87094 4.62228,3.08386 2.31218,5.23605 -1.72854,1.61039 -3.74369,2.07365 -11.09767,2.55128 -12.03525,0.78166 -18.67994,0.85957 -29.15844,0.34191 z"
         id="path4343" /><path
         style="fill:#ffffff;fill-opacity:1;stroke:#000000;stroke-width:14.1421;stroke-linecap:round;stroke-linejoin:round;stroke-dasharray:none;stroke-opacity:1;paint-order:stroke fill markers"
         d="m 688.79859,446.8526 c -5.36296,-0.89873 -7.39526,-2.02719 -9.71008,-5.39166 -6.42957,-9.34507 -14.22959,-33.84998 -15.8273,-49.72378 -0.57623,-5.72511 0.36447,-8.68325 2.65774,-8.35754 1.20288,0.17085 2.23258,1.56138 4.23049,5.71297 2.46235,5.1167 2.99529,5.71869 7.89368,8.91639 5.42161,3.53927 6.067,3.71843 17.04973,4.73317 6.67583,0.61681 16.32702,-1.20598 21.79004,-4.11541 4.55528,-2.426 6.04494,-4.29197 11.42743,-14.31421 1.87979,-3.50017 3.98397,-7.09823 4.67595,-7.99567 l 1.25816,-1.6317 1.07672,1.64328 c 2.87969,4.39496 3.47699,7.71571 3.53471,19.65136 0.0533,11.02956 -0.0516,11.97645 -1.92028,17.32411 -3.35717,9.60747 -7.14841,15.49201 -15.33311,23.79912 -8.10307,8.22426 -8.61494,8.49473 -18.50682,9.77913 -6.02567,0.78241 -9.49463,0.77523 -14.29706,-0.0295 z m 18.03094,-16.73641 c 4.78803,-1.54636 15.76138,-8.12567 16.05879,-9.6284 0.20417,-1.03161 -1.70999,-1.10342 -20.5061,-0.76932 -24.62081,0.43763 -26.4764,0.60733 -27.49722,2.51474 -1.25987,2.3541 0.83436,4.63713 5.49701,5.9926 10.74657,3.12411 20.47455,3.81944 26.44752,1.89038 z"
         id="path4345" /></g></g></svg>
