<?xml version="1.0" encoding="UTF-8" standalone="no"?>
<!-- Created with Inkscape (http://www.inkscape.org/) -->

<svg
   width="512"
   height="512"
   viewBox="0 0 512 512"
   version="1.1"
   id="svg5"
   xml:space="preserve"
   inkscape:version="1.2.1 (9c6d41e410, 2022-07-14)"
   sodipodi:docname="batchess_with_bg_rounded.svg"
   inkscape:export-filename="batchess_with_png.png"
   inkscape:export-xdpi="96"
   inkscape:export-ydpi="96"
   xmlns:inkscape="http://www.inkscape.org/namespaces/inkscape"
   xmlns:sodipodi="http://sodipodi.sourceforge.net/DTD/sodipodi-0.dtd"
   xmlns="http://www.w3.org/2000/svg"
   xmlns:svg="http://www.w3.org/2000/svg"><sodipodi:namedview
     id="namedview7"
     pagecolor="#ffffff"
     bordercolor="#666666"
     borderopacity="1.0"
     inkscape:showpageshadow="2"
     inkscape:pageopacity="0.0"
     inkscape:pagecheckerboard="0"
     inkscape:deskcolor="#d1d1d1"
     inkscape:document-units="px"
     showgrid="false"
     showguides="false"
     inkscape:zoom="0.97782804"
     inkscape:cx="157.4919"
     inkscape:cy="263.85007"
     inkscape:window-width="1920"
     inkscape:window-height="1017"
     inkscape:window-x="1912"
     inkscape:window-y="-8"
     inkscape:window-maximized="1"
     inkscape:current-layer="layer1" /><defs
     id="defs2"><inkscape:path-effect
       effect="fillet_chamfer"
       id="path-effect14964"
       is_visible="true"
       lpeversion="1"
       nodesatellites_param="F,0,0,1,0,0,0,1 @ F,0,0,1,0,0,0,1 @ F,0,0,1,0,0,0,1 @ F,0,0,1,0,0,0,1"
       unit="px"
       method="auto"
       mode="F"
       radius="0"
       chamfer_steps="1"
       flexible="false"
       use_knot_distance="true"
       apply_no_radius="true"
       apply_with_radius="true"
       only_selected="false"
       hide_knots="false" /><inkscape:path-effect
       effect="fillet_chamfer"
       id="path-effect14960"
       is_visible="true"
       lpeversion="1"
       nodesatellites_param="F,0,0,1,0,0,0,1 @ F,0,0,1,0,0,0,1 @ F,0,0,1,0,0,0,1 @ F,0,0,1,0,0,0,1"
       unit="px"
       method="auto"
       mode="F"
       radius="0"
       chamfer_steps="1"
       flexible="false"
       use_knot_distance="true"
       apply_no_radius="true"
       apply_with_radius="true"
       only_selected="false"
       hide_knots="false" /><inkscape:path-effect
       effect="fillet_chamfer"
       id="path-effect14956"
       is_visible="true"
       lpeversion="1"
       nodesatellites_param="F,0,0,1,0,0,0,1 @ F,0,0,1,0,0,0,1 @ F,0,0,1,0,0,0,1 @ F,0,0,1,0,0,0,1"
       unit="px"
       method="auto"
       mode="F"
       radius="0"
       chamfer_steps="1"
       flexible="false"
       use_knot_distance="true"
       apply_no_radius="true"
       apply_with_radius="true"
       only_selected="false"
       hide_knots="false" /><inkscape:path-effect
       effect="fillet_chamfer"
       id="path-effect14952"
       is_visible="true"
       lpeversion="1"
       nodesatellites_param="F,0,0,1,0,0,0,1 @ F,0,0,1,0,0,0,1 @ F,0,0,1,0,0,0,1 @ F,0,0,1,0,0,0,1"
       unit="px"
       method="auto"
       mode="F"
       radius="0"
       chamfer_steps="1"
       flexible="false"
       use_knot_distance="true"
       apply_no_radius="true"
       apply_with_radius="true"
       only_selected="false"
       hide_knots="false" /><inkscape:path-effect
       effect="fillet_chamfer"
       id="path-effect14938"
       is_visible="true"
       lpeversion="1"
       nodesatellites_param="F,0,0,1,0,64,0,1 @ F,0,0,1,0,64,0,1 @ F,0,0,1,0,64,0,1 @ F,0,0,1,0,64,0,1"
       unit="px"
       method="auto"
       mode="F"
       radius="64"
       chamfer_steps="1"
       flexible="false"
       use_knot_distance="true"
       apply_no_radius="true"
       apply_with_radius="true"
       only_selected="false"
       hide_knots="false" /><inkscape:path-effect
       effect="fillet_chamfer"
       id="path-effect14888"
       is_visible="true"
       lpeversion="1"
       nodesatellites_param="F,0,0,1,0,64,0,1 @ F,0,0,1,0,64,0,1 @ F,0,0,1,0,64,0,1 @ F,0,0,1,0,64,0,1"
       unit="px"
       method="auto"
       mode="F"
       radius="64"
       chamfer_steps="1"
       flexible="false"
       use_knot_distance="true"
       apply_no_radius="true"
       apply_with_radius="true"
       only_selected="false"
       hide_knots="false" /><inkscape:path-effect
       effect="fillet_chamfer"
       id="path-effect14780"
       is_visible="true"
       lpeversion="1"
       nodesatellites_param="F,0,0,1,0,0,0,1 @ F,0,0,1,0,0,0,1 @ F,0,0,1,0,0,0,1 @ F,0,0,1,0,0,0,1"
       unit="px"
       method="auto"
       mode="F"
       radius="0"
       chamfer_steps="1"
       flexible="false"
       use_knot_distance="true"
       apply_no_radius="true"
       apply_with_radius="true"
       only_selected="false"
       hide_knots="false" /><inkscape:path-effect
       effect="fillet_chamfer"
       id="path-effect14778"
       is_visible="true"
       lpeversion="1"
       nodesatellites_param="F,0,0,1,0,0,0,1 @ F,0,0,1,0,0,0,1 @ F,0,0,1,0,0,0,1 @ F,0,0,1,0,0,0,1"
       unit="px"
       method="auto"
       mode="F"
       radius="0"
       chamfer_steps="1"
       flexible="false"
       use_knot_distance="true"
       apply_no_radius="true"
       apply_with_radius="true"
       only_selected="false"
       hide_knots="false" /><inkscape:path-effect
       effect="transform_2pts"
       start="145.91276,262.55419"
       end="365.63666,262.55419"
       id="path-effect3972"
       is_visible="true"
       lpeversion="1"
       first_knot="1"
       last_knot="2"
       helper_size="4"
       stretch="1"
       offset="0"
       elastic="false"
       from_original_width="true"
       flip_vertical="false"
       flip_horizontal="false"
       lock_length="false"
       lock_angle="false" /><inkscape:path-effect
       effect="bend_path"
       id="path-effect3970"
       is_visible="true"
       lpeversion="1"
       bendpath="m 145.91276,262.55419 h 219.7239"
       prop_scale="1"
       scale_y_rel="false"
       vertical="false"
       hide_knot="false" /><inkscape:path-effect
       effect="join_type"
       id="path-effect3968"
       is_visible="true"
       lpeversion="1"
       linecap_type="butt"
       line_width="1.1"
       linejoin_type="extrp_arc"
       miter_limit="100"
       attempt_force_join="true" /><inkscape:path-effect
       effect="mirror_symmetry"
       start_point="365.63666,60.240733"
       end_point="365.63666,464.86764"
       center_point="365.63666,262.55419"
       id="path-effect3966"
       is_visible="false"
       lpeversion="1.2"
       lpesatellites=""
       mode="free"
       discard_orig_path="false"
       fuse_paths="false"
       oposite_fuse="false"
       split_items="false"
       split_open="false"
       link_styles="false" /><inkscape:path-effect
       effect="interpolate_points"
       id="path-effect3964"
       is_visible="false"
       lpeversion="1"
       interpolator_type="CentripetalCatmullRom" /><inkscape:path-effect
       effect="attach_path"
       id="path-effect3962"
       lpeversion="1"
       is_visible="true"
       startposition="2.5"
       endposition="0.8"
       startcurvestart="0,0 , 20.199723,0.10576647"
       startcurveend="0,0 , 20.8,0" /><inkscape:path-effect
       effect="bend_path"
       id="path-effect3960"
       is_visible="false"
       lpeversion="1"
       bendpath="m 145.91276,262.55419 h 219.7239"
       prop_scale="1"
       scale_y_rel="false"
       vertical="false"
       hide_knot="false" /><inkscape:path-effect
       effect="fillet_chamfer"
       id="path-effect14780-0"
       is_visible="true"
       lpeversion="1"
       nodesatellites_param="F,0,0,1,0,0,0,1 @ F,0,0,1,0,0,0,1 @ F,0,0,1,0,0,0,1 @ F,0,0,1,0,0,0,1"
       unit="px"
       method="auto"
       mode="F"
       radius="0"
       chamfer_steps="1"
       flexible="false"
       use_knot_distance="true"
       apply_no_radius="true"
       apply_with_radius="true"
       only_selected="false"
       hide_knots="false" /><inkscape:path-effect
       effect="fillet_chamfer"
       id="path-effect14778-2"
       is_visible="true"
       lpeversion="1"
       nodesatellites_param="F,0,0,1,0,0,0,1 @ F,0,0,1,0,0,0,1 @ F,0,0,1,0,0,0,1 @ F,0,0,1,0,0,0,1"
       unit="px"
       method="auto"
       mode="F"
       radius="0"
       chamfer_steps="1"
       flexible="false"
       use_knot_distance="true"
       apply_no_radius="true"
       apply_with_radius="true"
       only_selected="false"
       hide_knots="false" /><clipPath
       clipPathUnits="userSpaceOnUse"
       id="clipPath17231"><path
         id="path17233"
         d="m 64,-0.199753 h 384 a 64,64 0 0 1 63.99999,64.000002 V 447.80024 a 64,64 0 0 1 -63.99999,64 H 64 a 64,64 0 0 1 -64,-64 V 63.800249 A 64,64 0 0 1 64,-0.199753 Z"
         style="opacity:1;fill:#d40000;stroke:none;stroke-width:50;stroke-linecap:square;stroke-linejoin:miter;stroke-dasharray:none;stroke-opacity:0;paint-order:stroke fill markers" /></clipPath></defs><g
     inkscape:label="Layer 1"
     inkscape:groupmode="layer"
     id="layer1"><g
       id="g14894"
       transform="translate(2.3773956e-6,0.19975641)"
       clip-path="url(#clipPath17231)"><path
         id="path15073"
         d="m 256,255.80025 h 256 v 256 H 256 Z"
         style="fill:#ffce9e;fill-opacity:1;stroke:none;stroke-width:5.08363;stroke-linecap:square;stroke-opacity:0.984314;paint-order:stroke fill markers" /><path
         id="path15078"
         d="M 5.2452087e-6,-0.19975281 H 256.00001 V 255.80025 H 5.2452087e-6 Z"
         style="fill:#ffce9e;fill-opacity:1;stroke:none;stroke-width:5.08363;stroke-linecap:square;stroke-opacity:0.984314;paint-order:stroke fill markers"
         class="UnoptimicedTransforms" /><path
         id="path15067"
         d="M 5.2452087e-6,255.99998 H 256.00001 v 256 H 5.2452087e-6 Z"
         style="fill:#d18b47;fill-opacity:1;stroke:none;stroke-width:5.08363;stroke-linecap:square;stroke-opacity:0.984314;paint-order:stroke fill markers"
         class="UnoptimicedTransforms" /><path
         id="path15064"
         d="M 256,-0.19975281 H 512 V 255.80025 H 256 Z"
         style="fill:#d18b47;fill-opacity:1;stroke:none;stroke-width:5.08363;stroke-linecap:square;stroke-opacity:0.984314;paint-order:stroke fill markers"
         class="UnoptimicedTransforms" /></g><g
       id="g17344"
       transform="translate(-372.08487,128.69743)"><g
         id="g17323"
         transform="translate(-51.675295,-37.575671)"><g
           id="g4444"
           transform="translate(-16.239874,-70.12176)"><g
             id="g4398"><path
               style="fill:#000000;stroke:none;stroke-width:0.247768"
               d="m 693.80152,460.04394 c -0.46952,-0.0287 -2.4366,-0.4081 -6.23814,-0.8421 -12.29325,-1.11858 -26.40772,-8.03362 -34.03943,-15.57309 -14.62769,-14.45088 -16.69119,-22.78026 -29.83046,-45.16625 -4.74458,-10.35066 -8.01438,-29.62018 -10.64247,-41.38609 -1.03789,-2.32015 -1.0921,-4.51733 -1.18581,-4.61099 -0.72489,-4.06875 -0.59044,-3.22234 -2.58449,-10.92297 0,-0.13346 -0.55996,-2.40584 -0.79895,-4.0138 -0.55032,-3.70249 -1.2247,-6.76468 -1.8205,-10.6157 -0.69572,-4.49699 -4.54409,-29.98598 -5.12282,-41.62777 -0.34873,-8.05057 0.0204,-9.21047 1.06945,-35.94844 0.13659,-3.48535 0.41443,-5.40607 0.49242,-6.05793 0.31574,-2.87452 1.99723,-6.3925 2.64775,-8.11619 23.33996,-89.18241 157.25962,-72.91138 178.12003,3.7362 1.82727,14.33521 3.45939,30.43823 3.3097,40.99317 -0.11901,0.12939 -0.21651,1.45317 -0.21651,2.9416 -0.0947,8.86962 0.43618,20.36939 -0.24641,25.11427 -0.1972,1.29395 -0.22832,2.28017 -0.0859,2.72544 -0.7696,6.67597 -0.0258,9.46505 -0.12893,14.68151 -0.032,1.62331 -0.16333,3.31762 -0.29167,3.7651 -0.12834,0.4475 -0.2899,2.37908 -0.35903,4.29241 -1.67356,10.93533 -3.41107,25.59651 -7.05427,42.69136 -0.13091,0.23663 -0.45869,1.3222 -0.72846,2.41238 -0.26976,1.09017 -0.67312,2.59536 -0.89635,3.34485 -0.22324,0.7495 -0.46611,1.75297 -0.53975,2.22991 -0.0737,0.47693 -0.23602,0.99476 -0.36088,1.1507 -0.12488,0.15594 -0.4414,1.32664 -0.70344,2.60154 -0.52006,2.5303 -1.03533,4.47736 -1.23645,4.67204 -14.99944,27.41752 -21.2608,50.10523 -48.34509,64.84517 -2.21077,1.20316 -6.90392,1.8746 -9.26687,2.01765 -4.21248,0.25503 -12.00392,1.33388 -22.91627,0.66601 z m 19.94522,-14.8849 c 28.55834,-22.15929 26.91018,-46.16964 25.32137,-58.83566 -0.1992,-4.4632 -3.71331,-13.78165 -5.38571,-11.6445 -1.6724,2.13715 -2.25054,2.9014 -3.08035,4.43203 -0.8298,1.53062 -1.54682,2.97393 -2.22334,4.08271 -0.67652,1.10878 -1.12762,1.95355 -1.12762,2.12999 0,0.17644 -0.41616,0.68311 -0.99107,1.77272 -0.57491,1.08961 -1.39669,2.58189 -1.98566,3.62547 -0.58897,1.04359 -0.92793,1.83602 -2.59433,3.99444 -1.6664,2.15842 -7.23226,4.92358 -8.79945,5.4802 -1.56718,0.5566 -8.83472,2.06173 -11.49169,2.34044 -2.65698,0.27872 -2.20826,0.3815 -4.30152,0.0349 -2.09327,-0.34658 -4.48573,-0.38299 -6.55143,-0.61187 -2.0657,-0.22888 -4.68311,-0.43484 -5.84224,-0.7494 -1.15913,-0.31456 -0.99635,-0.43618 -1.21109,-0.51549 -0.21474,-0.0793 1.05124,0.64772 -0.78086,-0.2884 -1.8321,-0.93612 -7.27605,-4.32033 -9.55967,-6.41391 -2.28362,-2.09359 -3.96894,-14.09149 -9.14838,-10.66046 -5.17945,3.43104 6.41479,51.00157 17.16483,61.45376 4.81187,3.93642 21.94661,3.78321 32.58821,0.37302 z m -10.90045,-14.3357 c -0.81763,0.0658 2.32967,-0.22737 -1.72198,0.35454 -4.05165,0.58191 -22.24976,-2.98904 -25.12237,-5.00808 v -1.7e-4 -1.6e-4 c -2.34229,-2.78565 -0.74291,-4.48444 0.9934,-5.03573 1.63197,-0.51817 3.95049,-0.68059 5.96912,-0.62567 2.68627,0.0731 3.82009,-0.0243 6.25458,-10e-4 2.43448,0.0232 -0.39476,-0.21606 5.27602,-0.0941 5.67078,0.1219 24.60611,-0.78151 25.92944,-0.8294 1.32332,-0.0479 3.0996,-0.0728 2.37867,0.94076 -0.72093,1.01358 -11.96197,8.84631 -19.95688,10.29916 M 647.8296,369.26554 c -0.011,-1.05348 0.56758,-9.04114 3.00195,-10.72146 8.20257,-8.65512 19.55366,-9.75869 29.12498,-15.27991 10.33823,-5.96361 25.20818,-7.05525 35.77335,-1.50359 27.67589,10.34741 35.00741,12.69901 33.80407,26.47699 -0.16743,0 -0.24466,0.66031 -0.21122,1.80573 18.72864,-7.10095 20.15676,-11.95774 26.01637,-20.92114 3.8302,-11.44869 1.93486,-19.52735 1.48501,-52.92526 0.0372,-1.45401 0.86344,-4.20361 -0.45541,-3.96532 -16.98082,3.068 -21.96071,7.06823 -28.44237,8.07687 -0.56715,0.0882 -1.3215,0.26038 -1.75323,0.35846 -9.9488,2.25998 -22.13335,5.06775 -27.06676,2.00587 -17.29854,-10.73621 -4.55752,-30.60279 -22.8638,-29.26515 -19.36173,1.41476 -10.90136,27.43267 -33.78091,30.40939 -9.18319,1.19476 -18.51343,0.173 -34.68736,-4.3685 -11.24224,-1.11975 -16.14568,-2.93569 -14.99367,5.74118 1.69309,10.37457 1.48342,21.86471 3.04898,31.53639 1.42901,3.9715 2.56959,13.46143 4.09806,18.66871 3.34554,11.39775 15.59882,17.78107 18.86273,18.27896 7.58526,1.15707 9.0602,-2.3488 9.03923,-4.40822 z m 67.66031,-2.09251 c 6.7646,-1.14717 8.39199,-0.82037 9.07696,-1.1843 13.3724,-7.10467 -10.93766,-11.36406 -24.13845,-12.71583 -6.36308,0.46384 -8.13965,-0.27528 -17.07658,2.28561 -52.3949,13.27084 25.37348,12.76167 32.13807,11.61452 z M 699.50017,259.65528 c 0.61322,-0.32665 1.91757,-0.73518 2.89856,-0.90783 0.98097,-0.17265 2.20312,-0.52781 2.71588,-0.78921 4.57637,-1.22527 8.95538,-4.26559 12.97763,-5.04436 0.60798,-0.0937 1.7277,-0.41346 2.59203,-0.61818 4.37564,-1.03643 13.1317,-3.08904 13.1317,-3.08904 l 13.02672,-1.54642 11.39441,-0.19253 c -5.21596,-2.91021 -14.30793,-5.18604 -18.61982,-3.95318 -0.47156,0.27822 -1.29083,0.58241 -1.8227,0.66251 -3.03555,0.45711 -4.79967,0.92664 -9.15807,1.31687 -6.84813,0.61314 -2.4977,-3.07654 4.8079,-7.81741 3.3971,-1.28064 3.5698,-1.53653 6.91832,-1.88003 4.13579,0.50565 7.86294,-0.32368 10.69256,-0.0115 5.14958,1.9828 2.37968,1.14566 6.97627,3.61078 2.55462,1.54574 3.93569,3.42047 5.46034,4.0617 0.0731,-0.0731 0.37588,0.0702 0.67287,0.31843 1.22464,1.09716 1.6675,2.83885 3.39501,2.91866 l 0.2355,-0.13927 0.41479,-0.74165 c 0.39787,-0.71141 -0.14745,-1.61605 -0.25395,-1.78139 -0.10649,-0.16534 -0.20566,-0.95289 -0.22037,-1.75011 -0.0151,-0.79722 -0.12669,-1.52195 -0.249,-1.61049 -0.12217,-0.0884 -0.23234,-0.66273 -0.24472,-1.27595 -0.0395,-1.95902 -0.41061,-3.82277 -0.88224,-4.43128 -0.25188,-0.32499 -0.45797,-0.91426 -0.45797,-1.30951 0,-0.39522 -0.16148,-0.96553 -0.35885,-1.26735 -0.19736,-0.30183 -0.40006,-0.939 -0.45043,-1.41595 -0.11195,-1.05978 -0.66239,-1.98213 -1.18291,-1.98213 -0.5872,0 -0.98101,-0.51722 -0.98101,-1.2884 -32.18375,-52.66318 -70.87077,-16.653 -133.93974,-0.0746 -0.11044,0.27253 -0.3565,0.65295 -0.54681,0.84536 -0.20546,0.20774 -0.30711,0.68287 -0.25027,1.16979 0.0982,0.8417 0.36988,1.45149 -0.53416,1.45149 -0.49697,0 -0.71066,0.75556 -1.07786,0.97984 -1.10717,0.67621 -1.15169,1.68636 -1.94832,2.53434 0,0 -0.43889,0.3286 -0.53626,0.57083 0.29684,2.01982 -1.00637,5.95851 -0.2906,6.81608 1.65147,1.97864 8.48624,-1.86698 9.85812,-2.59883 0.26962,0 0.8477,-0.22093 1.28462,-0.49098 0.43692,-0.27002 1.00758,-0.52635 1.26808,-0.5696 0.26052,-0.0432 0.71283,-0.21017 1.00511,-0.37097 0.29228,-0.16081 1.16475,-0.36681 1.93878,-0.45777 0.77406,-0.0911 1.55733,-0.31535 1.7406,-0.49864 8.95048,-1.16421 18.95611,2.4205 21.90715,4.61875 0.28438,0 0.51706,0.24778 0.51706,0.24778 l 0.42609,0.24777 c 2.48645,2.23844 2.94138,2.20972 0.84957,4.66345 -1.02508,1.20244 -3.59987,-0.54815 -7.1538,-0.62265 -0.53755,-0.0112 -1.34711,-0.003 -1.88893,-0.19426 -1.26697,-0.16751 -2.5195,-0.50121 -3.6426,-0.38163 -9.16196,-0.0112 -6.82149,-4.55235 -15.02986,2.04808 -0.5682,0.4569 -0.68049,0.49336 -0.87961,1.58911 -0.1088,0.59885 0.27884,0.56756 0.97609,0.7237 0.59577,0.13341 1.19965,-0.19118 1.80476,-0.2336 2.81913,-0.19763 8.4776,-0.0955 8.4776,-0.0955 l 19.69023,2.72038 c 0,0 0.5485,0.18834 1.07663,0.18834 0.52815,0 1.75083,0.1663 2.71709,0.36956 3.58086,1.27359 7.23066,1.83832 9.78892,3.34694 0.17236,0.10165 1.14766,0.77123 2.34992,1.01504 6.00472,1.21775 6.80627,2.17772 12.0525,2.61013 2.1944,-0.0196 2.9287,-0.072 4.56145,-0.21361 z"
               id="path1192"
               sodipodi:nodetypes="ccsccccssccccccccccsccssssscsssczzzzzzzzzzzzzzzzzccczssssszzzzcczcccscssssssccccssczccczccsccccssccccccccssssssssssssccssssscssssccccssccssssccscsscccsccs" /></g><g
             id="g937"
             transform="matrix(1.4942041,0,0,1.4129224,1097.743,241.26607)"><g
               style="fill:none;fill-opacity:1;fill-rule:evenodd;stroke:#000000;stroke-width:1.5;stroke-linecap:round;stroke-linejoin:round;stroke-miterlimit:4;stroke-dasharray:none;stroke-opacity:1"
               id="g687"
               transform="matrix(4.8651816,0,0,4.8651816,-378.18131,-189.40464)"><path
                 d="M 22.5,11.63 V 6"
                 style="fill:none;stroke:#000000;stroke-linejoin:miter"
                 id="path673" /><path
                 d="m 20,8 h 5"
                 style="fill:none;stroke:#000000;stroke-linejoin:miter"
                 id="path675" /><path
                 d="m 22.5,25 c 0,0 4.5,-7.5 3,-10.5 0,0 -1,-2.5 -3,-2.5 -2,0 -3,2.5 -3,2.5 -1.5,3 3,10.5 3,10.5"
                 style="fill:#ffffff;stroke:#000000;stroke-linecap:butt;stroke-linejoin:miter"
                 id="path677" /><path
                 d="m 32.5,37 v -7 c 0,0 9,-4.5 6,-10.5 -4,-6.5 -13.5,-3.5 -16,4 V 27 23.5 C 19,16 9.5,13 6.5,19.5 c -3,6 5,10 5,10 V 37 c 11.197687,-5.116015 18.180309,-0.55315 21,0"
                 style="fill:#ffffff;stroke:#000000"
                 id="path679"
                 sodipodi:nodetypes="cccccccccc" /><path
                 d="M 11.5,30 C 17,27 27,27 32.5,30"
                 style="fill:none;stroke:#000000"
                 id="path681" /><path
                 d="m 11.5,33.5 c 5.5,-3 15.5,-3 21,0"
                 style="fill:none;stroke:#000000"
                 id="path683" /><path
                 d="M 11.5,37 C 17,34 27,34 32.5,37"
                 style="fill:none;stroke:#000000"
                 id="path685" /></g></g><path
             id="path4339"
             style="fill:#ffffff;fill-opacity:1;stroke:#000000;stroke-width:14.1421;stroke-linecap:round;stroke-linejoin:round;stroke-dasharray:none;stroke-opacity:1;paint-order:stroke fill markers"
             d="m 697.6016,273.68945 c -3.34557,0.0152 -6.97044,1.29465 -9.66015,3.65625 -1.56476,1.37387 -3.96104,5.09282 -6.35743,9.87109 -6.20321,12.36885 -9.94156,15.53299 -20.05273,16.96289 -6.83509,0.96661 -15.95408,0.0661 -26.90234,-2.65429 -4.08354,-1.01468 -10.17492,-2.01705 -13.53516,-2.22656 -5.99844,-0.374 -6.13026,-0.34565 -7.32422,1.47656 -0.66884,1.02078 -1.04066,2.31683 -0.82422,2.88086 0.21644,0.56404 0.9203,7.48704 1.5625,15.38476 1.27902,15.72915 4.7711,34.4011 7.48242,40.00196 2.05958,4.25451 8.04288,10.12004 12.68165,12.43164 4.18328,2.08461 8.79438,2.45561 10.94531,0.88281 0.97029,-0.70949 1.6018,-2.55911 2.20508,-6.46094 0.76953,-4.97704 1.11187,-5.74012 3.83007,-8.50976 3.45673,-3.52215 8.197,-6.17821 17.625,-9.88086 3.69463,-1.45099 8.79322,-3.69212 11.33204,-4.98047 2.53881,-1.28835 6.50352,-2.83465 8.81054,-3.43555 5.20355,-1.35539 15.10725,-1.39991 19.8086,-0.0898 4.13204,1.15142 25.79809,9.54213 29.37109,11.375 8.13521,4.17319 11.28711,8.38018 11.28711,15.06836 0,2.0162 0.2243,3.66601 0.49805,3.66601 0.27375,0 3.41687,-1.41881 6.98437,-3.15429 5.22385,-2.54125 7.2999,-4.04471 10.67188,-7.72461 5.24093,-5.71957 7.77971,-10.70301 8.68554,-17.05079 1.01601,-7.11981 0.10651,-48.4375 -1.0664,-48.4375 -1.71248,0 -14.20128,3.4879 -19.05664,5.32227 -7.17432,2.71048 -23.6997,5.97933 -30.26368,5.98633 -6.40002,0.007 -8.31439,-0.77826 -12.08789,-4.95508 -3.12977,-3.46429 -4.75375,-7.03164 -6.27343,-13.77734 -1.61702,-7.17782 -2.33592,-8.67454 -4.91993,-10.25 -1.54353,-0.9411 -3.44968,-1.38802 -5.45703,-1.37891 z" /></g><path
           style="opacity:1;fill:#ffffff;fill-rule:nonzero;stroke:none;stroke-width:36.157;stroke-linecap:square;stroke-linejoin:miter;stroke-dasharray:none;stroke-opacity:0;paint-order:stroke fill markers"
           d="m 672.5204,376.79352 c -6.37818,-1.04037 -7.5326,-1.94294 -12.07192,-9.43829 -0.60218,-0.99432 -2.27224,-4.75413 -3.71125,-8.35514 -7.14301,-17.87478 -11.7623,-41.08733 -8.91432,-44.79567 1.63933,-2.13457 3.29933,-0.80782 6.03187,4.82097 3.44011,7.08629 9.88845,11.69467 18.00564,12.86793 14.6502,2.11755 28.44007,-0.81745 33.8067,-7.19533 1.03318,-1.22786 3.69335,-5.55559 5.9115,-9.61716 2.21814,-4.06157 4.65125,-8.1982 5.40691,-9.19252 l 1.37393,-1.80785 1.4455,3.26583 c 2.30094,5.19856 3.10196,9.90418 3.13696,18.42838 0.0503,12.2302 -2.72523,21.71335 -9.20954,31.46715 -3.61808,5.44237 -13.07865,15.34428 -16.16517,16.91929 -4.43435,2.26279 -18.34788,3.72509 -25.04681,2.63241 z m 20.97839,-18.06674 c 6.36857,-2.88765 13.35617,-7.36061 13.36445,-8.55497 0.005,-0.72447 -4.5062,-0.82296 -21.86867,-0.47745 -12.03125,0.23941 -22.95087,0.76278 -24.26583,1.16303 -2.12471,0.64673 -2.3662,0.98161 -2.16942,3.00845 0.20504,2.11205 0.56903,2.39624 4.92183,3.8428 6.67808,2.21932 16.31636,3.85395 20.98266,3.55862 2.48381,-0.15721 5.89281,-1.11576 9.03498,-2.54048 z"
           id="path17304" /><path
           style="opacity:1;fill:#ffffff;fill-rule:nonzero;stroke:none;stroke-width:36.157;stroke-linecap:square;stroke-linejoin:miter;stroke-dasharray:none;stroke-opacity:0;paint-order:stroke fill markers"
           d="m 671.50164,187.93658 c -2.94668,-0.79114 -5.95294,-1.75705 -6.68058,-2.14647 -5.33948,-2.85761 -26.77572,-6.45134 -38.48156,-6.45134 h -6.47092 l 1.37587,-1.52031 c 2.57328,-2.84345 5.22846,-3.75616 8.5245,-2.93027 5.27568,1.32192 18.59218,2.5045 19.37599,1.72068 2.8331,-2.8331 -3.23553,-7.32089 -12.57935,-9.30248 -7.67979,-1.62869 -13.3678,-1.01412 -20.69089,2.23561 -3.31424,1.47074 -6.52907,2.48098 -7.14407,2.24499 -1.55137,-0.59532 -0.80088,-5.81947 1.19159,-8.2947 0.82811,-1.02875 1.79331,-2.53208 2.14488,-3.34075 0.47858,-1.10078 3.06671,-2.24244 10.29834,-4.54274 16.78161,-5.33802 31.71314,-7.36809 54.1278,-7.35912 16.84754,0.007 24.71723,0.7275 35.1013,3.21481 8.00154,1.91663 36.51247,10.98071 37.44049,11.90293 0.61969,0.61582 2.7387,11.80408 2.31575,12.22703 -0.13659,0.1366 -2.30948,-1.36585 -4.82864,-3.33877 -7.83356,-6.13497 -9.2514,-6.65657 -18.09442,-6.65657 -4.56817,0 -8.58093,0.36613 -9.77311,0.89172 -3.10453,1.36868 -8.84069,5.61484 -9.66446,7.15406 -1.13427,2.1194 0.83545,2.45044 7.92744,1.33234 8.78264,-1.38466 14.19092,-1.27337 19.23915,0.39587 l 4.33884,1.43468 -4.33884,0.17418 c -13.9167,0.55866 -32.47757,4.16976 -41.47529,8.06919 -6.17544,2.67632 -12.33611,4.42331 -15.40252,4.36772 -1.33083,-0.0241 -4.83061,-0.69116 -7.77729,-1.48229 z"
           id="path17306" /></g><path
         style="opacity:1;fill:#ffffff;fill-rule:nonzero;stroke:none;stroke-width:51.1337;stroke-linecap:square;stroke-linejoin:miter;stroke-dasharray:none;stroke-opacity:0;paint-order:stroke fill markers"
         d="m 611.55947,258.67781 c -4.49977,-0.44157 -9.52387,-1.31712 -11.16467,-1.94566 -2.86461,-1.09736 -2.90393,-1.19839 -0.98855,-2.53997 2.27806,-1.59561 11.60986,-4.76344 19.69542,-6.68593 10.07553,-2.39564 32.0488,0.28439 38.85689,4.73929 2.38045,1.55765 2.38915,1.62112 0.48349,3.52677 -3.5415,3.54151 -26.13368,4.94163 -46.88258,2.9055 z"
         id="path17325" /></g></g></svg>
